<?xml version="1.0" encoding="UTF-8" standalone="no"?>
<!DOCTYPE svg PUBLIC "-//W3C//DTD SVG 1.1//EN"
 "http://www.w3.org/Graphics/SVG/1.1/DTD/svg11.dtd">
<!-- Generated by graphviz version 2.40.1 (20161225.0304)
 -->
<!-- Title: gocallvis Pages: 1 -->
<svg width="680pt" height="793pt"
 viewBox="0.00 0.00 679.60 792.80" xmlns="http://www.w3.org/2000/svg" xmlns:xlink="http://www.w3.org/1999/xlink">
<g id="graph0" class="graph" transform="scale(1 1) rotate(0) translate(0 792.8)">
<title>gocallvis</title>
<polygon fill="#d3d3d3" stroke="transparent" points="0,0 0,-792.8 679.602,-792.8 679.602,0 0,0"/>
<text text-anchor="middle" x="15.7826" y="-8.2" font-family="Arial" font-size="14.00" fill="#000000">p3</text>
<g id="clust1" class="cluster">
<title>cluster_focus</title>
<polygon fill="#e6ecfa" stroke="#000000" stroke-width=".5" points="8,-32.8 8,-784.8 671.602,-784.8 671.602,-32.8 8,-32.8"/>
<text text-anchor="middle" x="339.801" y="-764.6" font-family="Arial" font-size="18.00" fill="#000000">main</text>
</g>
<g id="clust7" class="cluster">
<title>cluster_regexp</title>
<g id="a_clust7"><a xlink:href="/?f=regexp" xlink:title="package: regexp">
<polygon fill="#e0ffe1" stroke="#000000" stroke-width=".8" points="488.6575,-493.8 488.6575,-633.8 663.602,-633.8 663.602,-493.8 488.6575,-493.8"/>
<text text-anchor="middle" x="576.1297" y="-615.4" font-family="Tahoma bold" font-size="16.00" fill="#000000">regexp</text>
</a>
</g>
</g>
<g id="clust6" class="cluster">
<title>cluster_os</title>
<g id="a_clust6"><a xlink:href="/?f=os" xlink:title="package: os">
<polygon fill="#e0ffe1" stroke="#000000" stroke-width=".8" points="184.4517,-667.8 184.4517,-746.8 255.2058,-746.8 255.2058,-667.8 184.4517,-667.8"/>
<text text-anchor="middle" x="219.8287" y="-728.4" font-family="Tahoma bold" font-size="16.00" fill="#000000">os</text>
</a>
</g>
</g>
<g id="clust5" class="cluster">
<title>cluster_net/url</title>
<g id="a_clust5"><a xlink:href="/?f=net/url" xlink:title="package: net/url">
<polygon fill="#e0ffe1" stroke="#000000" stroke-width=".8" points="517.2263,-406.8 517.2263,-485.8 635.0332,-485.8 635.0332,-406.8 517.2263,-406.8"/>
<text text-anchor="middle" x="576.1297" y="-467.4" font-family="Tahoma bold" font-size="16.00" fill="#000000">net/url</text>
</a>
</g>
</g>
<g id="clust4" class="cluster">
<title>cluster_net/http</title>
<g id="a_clust4"><a xlink:href="/?f=net/http" xlink:title="package: net/http">
<polygon fill="#e0ffe1" stroke="#000000" stroke-width=".8" points="155.8765,-580.8 155.8765,-659.8 283.781,-659.8 283.781,-580.8 155.8765,-580.8"/>
<text text-anchor="middle" x="219.8287" y="-641.4" font-family="Tahoma bold" font-size="16.00" fill="#000000">net/http</text>
</a>
</g>
</g>
<g id="clust3" class="cluster">
<title>cluster_github.com/gorilla/mux</title>
<g id="a_clust3"><a xlink:href="/?f=github.com/gorilla/mux" xlink:title="package: github.com/gorilla/mux">
<polygon fill="#ffffe0" stroke="#000000" stroke-width=".8" points="135,-188.8 135,-572.8 304.6575,-572.8 304.6575,-188.8 135,-188.8"/>
<text text-anchor="middle" x="219.8287" y="-554.4" font-family="Tahoma bold" font-size="16.00" fill="#000000">mux</text>
</a>
</g>
</g>
<g id="clust2" class="cluster">
<title>cluster_fmt</title>
<g id="a_clust2"><a xlink:href="/?f=fmt" xlink:title="package: fmt">
<polygon fill="#e0ffe1" stroke="#000000" stroke-width=".8" points="184.8287,-40.8 184.8287,-180.8 254.8287,-180.8 254.8287,-40.8 184.8287,-40.8"/>
<text text-anchor="middle" x="219.8287" y="-162.4" font-family="Tahoma bold" font-size="16.00" fill="#000000">fmt</text>
</a>
</g>
</g>
<!-- p3.init$1 -->
<g id="node1" class="node">
<title>p3.init$1</title>
<ellipse fill="#add8e6" stroke="#000000" stroke-dasharray="1,5" cx="396.6575" cy="-519.8" rx="27" ry="18"/>
<text text-anchor="middle" x="396.6575" y="-515.6" font-family="Verdana" font-size="14.00" fill="#000000">init$1</text>
</g>
<!-- (*net/url.URL).String -->
<g id="node12" class="node">
<title>(*net/url.URL).String</title>
<ellipse fill="#adedad" stroke="#000000" stroke-width="1.5" cx="576.1297" cy="-432.8" rx="50.8071" ry="18"/>
<text text-anchor="middle" x="576.1297" y="-428.6" font-family="Verdana" font-size="14.00" fill="#000000">(*URL).String</text>
</g>
<!-- p3.init$1&#45;&gt;(*net/url.URL).String -->
<g id="edge2" class="edge">
<title>p3.init$1&#45;&gt;(*net/url.URL).String</title>
<path fill="none" stroke="#8b4513" d="M418.6643,-509.1321C447.9643,-494.9288 500.296,-469.5608 536.545,-451.9889"/>
<polygon fill="#8b4513" stroke="#8b4513" points="538.3779,-454.99 545.8497,-447.4784 535.3244,-448.691 538.3779,-454.99"/>
</g>
<!-- regexp.MustCompile -->
<g id="node14" class="node">
<title>regexp.MustCompile</title>
<ellipse fill="#adedad" stroke="#000000" stroke-width="1.5" cx="576.1297" cy="-519.8" rx="48.11" ry="18"/>
<text text-anchor="middle" x="576.1297" y="-515.6" font-family="Verdana" font-size="14.00" fill="#000000">MustCompile</text>
</g>
<!-- p3.init$1&#45;&gt;regexp.MustCompile -->
<g id="edge1" class="edge">
<title>p3.init$1&#45;&gt;regexp.MustCompile</title>
<path fill="none" stroke="#8b4513" d="M423.9155,-519.8C448.7795,-519.8 486.3478,-519.8 517.9393,-519.8"/>
<polygon fill="#8b4513" stroke="#8b4513" points="517.9626,-523.3001 527.9626,-519.8 517.9625,-516.3001 517.9626,-523.3001"/>
</g>
<!-- (*regexp.Regexp).MatchString -->
<g id="node15" class="node">
<title>(*regexp.Regexp).MatchString</title>
<ellipse fill="#adedad" stroke="#000000" stroke-width="1.5" cx="576.1297" cy="-580.8" rx="79.4445" ry="18"/>
<text text-anchor="middle" x="576.1297" y="-576.6" font-family="Verdana" font-size="14.00" fill="#000000">(*Regexp).MatchString</text>
</g>
<!-- p3.init$1&#45;&gt;(*regexp.Regexp).MatchString -->
<g id="edge3" class="edge">
<title>p3.init$1&#45;&gt;(*regexp.Regexp).MatchString</title>
<path fill="none" stroke="#8b4513" d="M420.8619,-528.0267C446.7258,-536.8175 488.5593,-551.0361 522.2904,-562.5008"/>
<polygon fill="#8b4513" stroke="#8b4513" points="521.425,-565.9032 532.0194,-565.8075 523.6777,-559.2756 521.425,-565.9032"/>
</g>
<!-- p3.main -->
<g id="node2" class="node">
<title>p3.main</title>
<ellipse fill="#add8e6" stroke="#000000" stroke-width=".5" cx="43" cy="-336.8" rx="27" ry="18"/>
<text text-anchor="middle" x="43" y="-332.6" font-family="Verdana" font-size="14.00" fill="#000000">main</text>
</g>
<!-- fmt.Println -->
<g id="node3" class="node">
<title>fmt.Println</title>
<ellipse fill="#adedad" stroke="#000000" stroke-width="1.5" cx="219.8287" cy="-66.8" rx="27" ry="18"/>
<text text-anchor="middle" x="219.8287" y="-62.6" font-family="Verdana" font-size="14.00" fill="#000000">Println</text>
</g>
<!-- p3.main&#45;&gt;fmt.Println -->
<g id="edge11" class="edge">
<title>p3.main&#45;&gt;fmt.Println</title>
<path fill="none" stroke="#8b4513" d="M44.8799,-318.7707C50.401,-274.84 70.4779,-161.2288 135,-97.8 148.0563,-84.9649 166.8501,-77.3891 183.4313,-72.9452"/>
<polygon fill="#8b4513" stroke="#8b4513" points="184.4855,-76.2919 193.3984,-70.5639 182.8588,-69.4835 184.4855,-76.2919"/>
</g>
<!-- fmt.Print -->
<g id="node4" class="node">
<title>fmt.Print</title>
<ellipse fill="#adedad" stroke="#000000" stroke-width="1.5" cx="219.8287" cy="-127.8" rx="27" ry="18"/>
<text text-anchor="middle" x="219.8287" y="-123.6" font-family="Verdana" font-size="14.00" fill="#000000">Print</text>
</g>
<!-- p3.main&#45;&gt;fmt.Print -->
<g id="edge13" class="edge">
<title>p3.main&#45;&gt;fmt.Print</title>
<path fill="none" stroke="#8b4513" d="M50.2122,-319.3844C63.4719,-288.9216 94.1496,-225.1785 135,-182.8 150.4167,-166.8066 171.3234,-153.1841 188.5236,-143.4972"/>
<polygon fill="#8b4513" stroke="#8b4513" points="190.5328,-146.3884 197.6395,-138.5305 187.1838,-140.2415 190.5328,-146.3884"/>
</g>
<!-- github.com/gorilla/mux.NewRouter -->
<g id="node6" class="node">
<title>github.com/gorilla/mux.NewRouter</title>
<ellipse fill="#ffe4b5" stroke="#000000" stroke-width="1.5" cx="219.8287" cy="-214.8" rx="41.0075" ry="18"/>
<text text-anchor="middle" x="219.8287" y="-210.6" font-family="Verdana" font-size="14.00" fill="#000000">NewRouter</text>
</g>
<!-- p3.main&#45;&gt;github.com/gorilla/mux.NewRouter -->
<g id="edge5" class="edge">
<title>p3.main&#45;&gt;github.com/gorilla/mux.NewRouter</title>
<path fill="none" stroke="#8b4513" d="M55.6752,-320.5209C72.0545,-300.4592 102.3673,-266.4939 135,-245.8 147.1472,-238.0969 161.4813,-231.9338 174.8753,-227.1962"/>
<polygon fill="#8b4513" stroke="#8b4513" points="176.0487,-230.4943 184.4172,-223.9968 173.8233,-223.8575 176.0487,-230.4943"/>
</g>
<!-- (*github.com/gorilla/mux.Router).HandleFunc -->
<g id="node7" class="node">
<title>(*github.com/gorilla/mux.Router).HandleFunc</title>
<ellipse fill="#ffe4b5" stroke="#000000" stroke-width="1.5" cx="219.8287" cy="-275.8" rx="75.9021" ry="18"/>
<text text-anchor="middle" x="219.8287" y="-271.6" font-family="Verdana" font-size="14.00" fill="#000000">(*Router).HandleFunc</text>
</g>
<!-- p3.main&#45;&gt;(*github.com/gorilla/mux.Router).HandleFunc -->
<g id="edge6" class="edge">
<title>p3.main&#45;&gt;(*github.com/gorilla/mux.Router).HandleFunc</title>
<path fill="none" stroke="#8b4513" d="M67.2165,-328.4461C92.7851,-319.6258 133.8949,-305.4443 167.0085,-294.0212"/>
<polygon fill="#8b4513" stroke="#8b4513" points="168.2464,-297.2967 176.5583,-290.7269 165.9636,-290.6793 168.2464,-297.2967"/>
</g>
<!-- (*github.com/gorilla/mux.Route).Methods -->
<g id="node8" class="node">
<title>(*github.com/gorilla/mux.Route).Methods</title>
<ellipse fill="#ffe4b5" stroke="#000000" stroke-width="1.5" cx="219.8287" cy="-336.8" rx="62.1649" ry="18"/>
<text text-anchor="middle" x="219.8287" y="-332.6" font-family="Verdana" font-size="14.00" fill="#000000">(*Route).Methods</text>
</g>
<!-- p3.main&#45;&gt;(*github.com/gorilla/mux.Route).Methods -->
<g id="edge7" class="edge">
<title>p3.main&#45;&gt;(*github.com/gorilla/mux.Route).Methods</title>
<path fill="none" stroke="#8b4513" d="M70.242,-336.8C90.7731,-336.8 119.9362,-336.8 147.0678,-336.8"/>
<polygon fill="#8b4513" stroke="#8b4513" points="147.3447,-340.3001 157.3446,-336.8 147.3446,-333.3001 147.3447,-340.3001"/>
</g>
<!-- (*github.com/gorilla/mux.Route).MatcherFunc -->
<g id="node9" class="node">
<title>(*github.com/gorilla/mux.Route).MatcherFunc</title>
<ellipse fill="#ffe4b5" stroke="#000000" stroke-width="1.5" cx="219.8287" cy="-397.8" rx="76.6579" ry="18"/>
<text text-anchor="middle" x="219.8287" y="-393.6" font-family="Verdana" font-size="14.00" fill="#000000">(*Route).MatcherFunc</text>
</g>
<!-- p3.main&#45;&gt;(*github.com/gorilla/mux.Route).MatcherFunc -->
<g id="edge8" class="edge">
<title>p3.main&#45;&gt;(*github.com/gorilla/mux.Route).MatcherFunc</title>
<path fill="none" stroke="#8b4513" d="M67.2165,-345.1539C92.7851,-353.9742 133.8949,-368.1557 167.0085,-379.5788"/>
<polygon fill="#8b4513" stroke="#8b4513" points="165.9636,-382.9207 176.5583,-382.8731 168.2464,-376.3033 165.9636,-382.9207"/>
</g>
<!-- (*github.com/gorilla/mux.Router).Use -->
<g id="node10" class="node">
<title>(*github.com/gorilla/mux.Router).Use</title>
<ellipse fill="#ffe4b5" stroke="#000000" stroke-width="1.5" cx="219.8287" cy="-458.8" rx="49.6477" ry="18"/>
<text text-anchor="middle" x="219.8287" y="-454.6" font-family="Verdana" font-size="14.00" fill="#000000">(*Router).Use</text>
</g>
<!-- p3.main&#45;&gt;(*github.com/gorilla/mux.Router).Use -->
<g id="edge9" class="edge">
<title>p3.main&#45;&gt;(*github.com/gorilla/mux.Router).Use</title>
<path fill="none" stroke="#8b4513" d="M55.3181,-352.9679C71.5525,-373.2684 101.9468,-407.9545 135,-428.8 145.4258,-435.3752 157.4836,-440.7472 169.177,-445.033"/>
<polygon fill="#8b4513" stroke="#8b4513" points="168.275,-448.4243 178.8698,-448.3803 170.56,-441.8078 168.275,-448.4243"/>
</g>
<!-- net/http.ListenAndServe -->
<g id="node11" class="node">
<title>net/http.ListenAndServe</title>
<ellipse fill="#adedad" stroke="#000000" stroke-width="1.5" cx="219.8287" cy="-606.8" rx="55.9045" ry="18"/>
<text text-anchor="middle" x="219.8287" y="-602.6" font-family="Verdana" font-size="14.00" fill="#000000">ListenAndServe</text>
</g>
<!-- p3.main&#45;&gt;net/http.ListenAndServe -->
<g id="edge12" class="edge">
<title>p3.main&#45;&gt;net/http.ListenAndServe</title>
<path fill="none" stroke="#8b4513" d="M44.6437,-354.8532C49.66,-399.3799 68.7377,-515.421 135,-578.8 142.2288,-585.7143 151.2,-590.9218 160.5765,-594.8438"/>
<polygon fill="#8b4513" stroke="#8b4513" points="159.4457,-598.1573 170.0388,-598.3528 161.8797,-591.5941 159.4457,-598.1573"/>
</g>
<!-- os.Getenv -->
<g id="node13" class="node">
<title>os.Getenv</title>
<ellipse fill="#adedad" stroke="#000000" stroke-width="1.5" cx="219.8287" cy="-693.8" rx="27.2547" ry="18"/>
<text text-anchor="middle" x="219.8287" y="-689.6" font-family="Verdana" font-size="14.00" fill="#000000">Getenv</text>
</g>
<!-- p3.main&#45;&gt;os.Getenv -->
<g id="edge10" class="edge">
<title>p3.main&#45;&gt;os.Getenv</title>
<path fill="none" stroke="#8b4513" d="M45.7964,-354.9936C55.6802,-417.1034 90.764,-619.4741 135,-665.8 147.4174,-678.804 165.986,-685.7724 182.5876,-689.5047"/>
<polygon fill="#8b4513" stroke="#8b4513" points="182.1157,-692.9781 192.5976,-691.4355 183.4415,-686.1048 182.1157,-692.9781"/>
</g>
<!-- (github.com/gorilla/mux.MatcherFunc).Match -->
<g id="node5" class="node">
<title>(github.com/gorilla/mux.MatcherFunc).Match</title>
<ellipse fill="#ffe4b5" stroke="#000000" stroke-width="1.5" cx="219.8287" cy="-519.8" rx="74.3694" ry="18"/>
<text text-anchor="middle" x="219.8287" y="-515.6" font-family="Verdana" font-size="14.00" fill="#000000">(MatcherFunc).Match</text>
</g>
<!-- (github.com/gorilla/mux.MatcherFunc).Match&#45;&gt;p3.init$1 -->
<g id="edge4" class="edge">
<title>(github.com/gorilla/mux.MatcherFunc).Match&#45;&gt;p3.init$1</title>
<path fill="none" stroke="#8b4513" stroke-dasharray="5,2" d="M294.0515,-519.8C316.5398,-519.8 340.286,-519.8 359.2641,-519.8"/>
<polygon fill="#8b4513" stroke="#8b4513" points="359.2788,-523.3001 369.2788,-519.8 359.2787,-516.3001 359.2788,-523.3001"/>
</g>
</g>
</svg>
